<svg xmlns="http://www.w3.org/2000/svg" version="1.1" xmlns:xlink="http://www.w3.org/1999/xlink" xmlns:svgjs="http://svgjs.dev/svgjs" width="2000" height="691" viewBox="0 0 2000 691"><g transform="matrix(1,0,0,1,-1.211525740700381,0.918870251845135)"><svg viewBox="0 0 396 137" data-background-color="#fffff5" preserveAspectRatio="xMidYMid meet" height="691" width="2000" xmlns="http://www.w3.org/2000/svg" xmlns:xlink="http://www.w3.org/1999/xlink"><g id="tight-bounds" transform="matrix(1,0,0,1,0.23988209665867544,-0.1821783277898419)"><svg viewBox="0 0 395.52 137.36412084889696" height="137.36412084889696" width="395.52"><g><svg viewBox="0 0 655.6451710818804 227.70560910823005" height="137.36412084889696" width="395.52"><g transform="matrix(1,0,0,1,0,60.38591767510337)"><svg viewBox="0 0 395.52 106.9337737580233" height="106.9337737580233" width="395.52"><g id="textblocktransform"><svg viewBox="0 0 395.52 106.9337737580233" height="106.9337737580233" width="395.52" id="textblock"><g><svg viewBox="0 0 395.52 68.66340071343637" height="68.66340071343637" width="395.52"><g transform="matrix(1,0,0,1,0,0)"><svg width="395.52" viewBox="2.5 -35.5 210.22 36.5" height="68.66340071343637" data-palette-color="#ffffff"><path d="M14.7-8.35L14.7 0 7.55 0Q5 0 3.75-0.88 2.5-1.75 2.5-3.1L2.5-3.1 2.5-32.7Q2.5-33.9 3.55-34.7 4.6-35.5 6.5-35.5L6.5-35.5 14.7-35.5 14.7-32.7 13.9-26.45 10.6-26.45 10.1-32.1Q10.1-32.55 9.5-32.55L9.5-32.55 7.4-32.55Q6.45-32.55 6.03-31.78 5.6-31 5.6-30.05L5.6-30.05Q5.6-29.5 5.75-29.4L5.75-29.4 6.75-4.45Q6.6-4.4 6.6-4.3L6.6-4.3Q6.6-4.15 7.05-4.15L7.05-4.15 10-4.15Q10.6-4.15 10.6-4.45L10.6-4.45 11.6-8.35 14.7-8.35ZM28.4-35.5L30.45 0 28.25 0 26.45-13.3 22.45-11.4 21.35 0 18.25 0 20.5-35.5 28.4-35.5ZM25.8-33.1Q25.8-33.4 25.5-33.4L25.5-33.4 23.35-32.9Q23.05-32.75 23.05-32.4L23.05-32.4 23.05-14.8Q23.05-14.55 23.35-14.55L23.35-14.55 25.2-14.85Q25.5-14.85 25.5-15.15L25.5-15.15 25.8-33.1ZM34.99-34.35Q34.99-34.85 36.84-35.18 38.7-35.5 40.45-35.5L40.45-35.5 42.59-35.5Q43.24-35.5 43.82-35.23 44.39-34.95 44.39-34.45L44.39-34.45 44.95-18.95 43.2-15.85 37.7-15.3 37.3 0 33.84 0 34.99-34.35ZM37.99-19.1L41.24-19.25Q41.55-19.25 41.55-19.55L41.55-19.55 41.55-32.5 40.8-33.25 37.99-32.9 37.99-19.1ZM48.59-35.5L58.94-34.8 59.19-31.65 54.79-31.65 54.79 0 50.54 0 51.54-30.75 47.94-31.95 48.59-35.5ZM63.34-35L67.04-35 65.99-3.1 70.19-3.4 70.19-34.35 73.69-34.15 73.69 1 62.19 1 63.34-35ZM78.14-34.95Q78.14-35.2 80.19-35.35 82.24-35.5 84.24-35.5L84.24-35.5 86.39-35.5Q87.19-35.5 87.69-34.9 88.19-34.3 88.24-33.35L88.24-33.35 88.74-18.95 86.49-16 90.49-1.1 89.54 0 86.59 0 84.04-15.55 81.49-15.3 80.44 0 78.14 0 78.14-34.95ZM81.29-19.05L85.04-19.25Q85.34-19.25 85.34-19.55L85.34-19.55 85.34-32 84.59-32.75 81.14-32.4 81.29-19.05ZM105.04-4.15L105.04 0 94.34 0 94.34-35.5 105.04-35.5 105.04-32.4 98.79-32.7 98.79-21.35 105.04-20.2 105.04-17.8 97.94-18.1 97.94-3.75 105.04-4.15ZM125.23-35.5Q127.63-35.5 129.16-33.95 130.68-32.4 130.68-30L130.68-30 129.18-2.85 126.13 0 119.48 0 119.48-35.5 125.23-35.5ZM126.38-31.9Q126.38-32.2 125.78-32.2L125.78-32.2 123.53-32.2Q123.38-32.2 123.23-32.1 123.08-32 123.08-31.9L123.08-31.9 123.08-3.6 123.53-3.3 125.38-3.55Q125.83-3.85 125.83-4.2L125.83-4.2 126.38-31.9ZM135.08-34.95Q135.08-35.2 137.13-35.35 139.18-35.5 141.18-35.5L141.18-35.5 143.33-35.5Q144.13-35.5 144.63-34.9 145.13-34.3 145.18-33.35L145.18-33.35 145.68-18.95 143.43-16 147.43-1.1 146.48 0 143.53 0 140.98-15.55 138.43-15.3 137.38 0 135.08 0 135.08-34.95ZM138.23-19.05L141.98-19.25Q142.28-19.25 142.28-19.55L142.28-19.55 142.28-32 141.53-32.75 138.08-32.4 138.23-19.05ZM161.97-4.15L161.97 0 151.28 0 151.28-35.5 161.97-35.5 161.97-32.4 155.72-32.7 155.72-21.35 161.97-20.2 161.97-17.8 154.88-18.1 154.88-3.75 161.97-4.15ZM176.72-35.5L178.77 0 176.57 0 174.77-13.3 170.77-11.4 169.67 0 166.57 0 168.82-35.5 176.72-35.5ZM174.12-33.1Q174.12-33.4 173.82-33.4L173.82-33.4 171.67-32.9Q171.37-32.75 171.37-32.4L171.37-32.4 171.37-14.8Q171.37-14.55 171.67-14.55L171.67-14.55 173.52-14.85Q173.82-14.85 173.82-15.15L173.82-15.15 174.12-33.1ZM185.52 0L182.92 0 182.92-35.5 186.52-35.5 190.17-13.8 190.57-13.8 193.97-35.5 196.87-35.5 198.02 0 194.72 0 194.72-26.75 194.37-26.75 190.92-7.85 189.27-7.5 185.72-29.45 185.52-29.45 185.52 0ZM212.07-28.45L210.22-28.45 209.22-32.35 206.22-32 205.47-20.9 212.72-19.6 212.02-3Q212.02-2 210.72-1 209.42 0 208.32 0L208.32 0 202.47 0 202.02-8.55 204.97-8.55 204.92-4.2 208.42-3.4 209.22-16.7 202.47-18.2 202.47-34.3 204.47-35.5 212.32-35.5 212.07-28.45Z" opacity="1" transform="matrix(1,0,0,1,0,0)" fill="#ffffff" class="wordmark-text-0" data-fill-palette-color="primary" id="text-0"></path></svg></g></svg></g><g transform="matrix(1,0,0,1,75.54432,84.87318170026158)"><svg viewBox="0 0 244.43135999999998 22.060592057761728" height="22.060592057761728" width="244.43135999999998"><g transform="matrix(1,0,0,1,0,0)"><svg width="244.43135999999998" viewBox="3.4 -36.75 512.41 46.25" height="22.060592057761728" data-palette-color="#ffffff"><path d="M16.75 0.6L16.75 0.6Q12.7 0.6 9.7-0.95 6.7-2.5 5.05-5.4 3.4-8.3 3.4-12.45L3.4-12.45 8.65-12.45Q8.65-8.35 10.8-6.13 12.95-3.9 16.7-3.9L16.7-3.9Q19.9-3.9 21.85-5.38 23.8-6.85 23.8-9.5L23.8-9.5Q23.8-11.3 22.73-12.4 21.65-13.5 19.88-14.2 18.1-14.9 16-15.45 13.9-16 11.78-16.68 9.65-17.35 7.88-18.4 6.1-19.45 5.03-21.2 3.95-22.95 3.95-25.65L3.95-25.65Q3.95-28.5 5.48-30.73 7-32.95 9.73-34.23 12.45-35.5 16.15-35.5L16.15-35.5Q19.75-35.5 22.6-34.18 25.45-32.85 27.18-30.43 28.9-28 28.95-24.6L28.95-24.6 23.65-24.6Q23.6-26.6 22.58-28.03 21.55-29.45 19.88-30.23 18.2-31 16.15-31L16.15-31Q13.2-31 11.35-29.6 9.5-28.2 9.5-25.8L9.5-25.8Q9.5-24.1 10.58-23.1 11.65-22.1 13.43-21.48 15.2-20.85 17.32-20.33 19.45-19.8 21.55-19.13 23.65-18.45 25.43-17.32 27.2-16.2 28.28-14.33 29.35-12.45 29.35-9.55L29.35-9.55Q29.35-6.45 27.7-4.17 26.05-1.9 23.2-0.65 20.35 0.6 16.75 0.6ZM60.75 0L55.95 0 55.75-6.25 55.75-18Q55.75-20.95 53.82-22.63 51.9-24.3 48.55-24.3L48.55-24.3Q45.3-24.3 43.25-22.83 41.2-21.35 41-18.75L41-18.75 36.05-18.75Q36.3-21.7 37.95-23.78 39.6-25.85 42.35-26.98 45.1-28.1 48.7-28.1L48.7-28.1Q52.4-28.1 55.1-26.88 57.8-25.65 59.27-23.35 60.75-21.05 60.75-17.75L60.75-17.75 60.75 0ZM46 0.6L46 0.6Q43.3 0.6 41.25-0.38 39.2-1.35 38.05-3.18 36.9-5 36.9-7.45L36.9-7.45Q36.9-11.7 40.17-14.05 43.45-16.4 49.35-16.4L49.35-16.4 56.4-16.4 56.4-12.65 49.15-12.65Q45.75-12.65 43.82-11.35 41.9-10.05 41.9-7.7L41.9-7.7Q41.9-5.75 43.27-4.65 44.65-3.55 47-3.55L47-3.55Q50-3.55 52.32-5.18 54.65-6.8 56.1-9.65L56.1-9.65 56.65-5.95Q55.35-2.8 52.65-1.1 49.95 0.6 46 0.6ZM84.09 0L78.4 0 67.65-27.5 73-27.5 79.34-10.95 81.3-4.65 83.3-10.95 89.65-27.5 94.8-27.5 84.09 0ZM114.04 0.6L114.04 0.6Q109.79 0.6 106.69-1.13 103.59-2.85 101.94-6.08 100.29-9.3 100.29-13.8L100.29-13.8Q100.29-18.3 101.97-21.5 103.64-24.7 106.77-26.4 109.89-28.1 114.24-28.1L114.24-28.1Q120.89-28.1 124.14-24.43 127.39-20.75 126.99-14.35L126.99-14.35 104.29-14.35 104.34-18.15 121.84-18.1Q121.64-20.75 119.54-22.35 117.44-23.95 114.24-23.95L114.24-23.95Q109.94-23.95 107.64-21.25 105.34-18.55 105.34-13.6L105.34-13.6Q105.34-10.65 106.37-8.38 107.39-6.1 109.34-4.85 111.29-3.6 114.04-3.6L114.04-3.6Q117.29-3.6 119.47-5.15 121.64-6.7 122.14-9.35L122.14-9.35 127.19-9.35Q126.54-4.7 123.04-2.05 119.54 0.6 114.04 0.6ZM170.44-27.5L176.19-13.9 178.79-7.05 181.39-13.95 187.14-27.5 192.39-27.5 179.64 2.55Q178.49 5.2 177.16 6.73 175.84 8.25 174.19 8.88 172.54 9.5 170.34 9.5L170.34 9.5 165.44 9.5 165.44 5.4 169.99 5.4Q171.29 5.4 172.21 4.83 173.14 4.25 173.89 3.13 174.64 2 175.39 0.2L175.39 0.2 176.14-1.6 165.19-27.5 170.44-27.5ZM211.19 0.6L211.19 0.6Q206.94 0.6 203.86-1.15 200.79-2.9 199.14-6.13 197.49-9.35 197.49-13.75L197.49-13.75Q197.49-18.25 199.14-21.43 200.79-24.6 203.86-26.35 206.94-28.1 211.24-28.1L211.24-28.1Q217.64-28.1 221.29-24.28 224.94-20.45 224.94-13.75L224.94-13.75Q224.94-9.35 223.29-6.13 221.64-2.9 218.56-1.15 215.49 0.6 211.19 0.6ZM211.24-3.6L211.24-3.6Q215.24-3.6 217.56-6.33 219.89-9.05 219.89-13.75L219.89-13.75Q219.89-18.5 217.56-21.2 215.24-23.9 211.24-23.9L211.24-23.9Q207.19-23.9 204.89-21.2 202.59-18.5 202.59-13.75L202.59-13.75Q202.59-9.05 204.89-6.33 207.19-3.6 211.24-3.6ZM231.03-27.5L236.08-27.5 236.08-10.15Q236.08-7.25 237.73-5.48 239.38-3.7 242.03-3.7L242.03-3.7Q245.08-3.7 247.46-5.93 249.83-8.15 251.23-12.85L251.23-12.85 252.03-7.2Q250.48-3.3 247.56-1.35 244.63 0.6 241.18 0.6L241.18 0.6Q238.08 0.6 235.81-0.73 233.53-2.05 232.28-4.4 231.03-6.75 231.03-9.95L231.03-9.95 231.03-27.5ZM250.63-27.5L255.68-27.5 255.68 0 250.88 0 250.63-6.2 250.63-27.5ZM288.78-15.7L283.73-15.7 283.73-19Q283.73-21.15 282.43-22.48 281.13-23.8 278.68-23.8L278.68-23.8Q275.58-23.8 273.13-21.48 270.68-19.15 269.23-14.4L269.23-14.4 268.53-19.5Q269.63-22.35 271.21-24.25 272.78-26.15 274.86-27.13 276.93-28.1 279.43-28.1L279.43-28.1Q283.58-28.1 286.18-25.73 288.78-23.35 288.78-19L288.78-19 288.78-15.7ZM270.18 0L265.13 0 265.13-27.5 269.88-27.5 270.18-21.25 270.18 0ZM339.78-28.1L339.78-28.1Q342.63-28.1 344.98-26.98 347.33-25.85 348.78-23.85L348.78-23.85 348.78-36.75 353.78-36.75 353.78 0 349.03 0 348.88-3.85Q347.43-1.85 345.05-0.63 342.68 0.6 339.78 0.6L339.78 0.6Q336.13 0.6 333.33-1.25 330.53-3.1 328.95-6.35 327.38-9.6 327.38-13.75L327.38-13.75Q327.38-17.95 328.95-21.2 330.53-24.45 333.33-26.28 336.13-28.1 339.78-28.1ZM340.88-3.65L340.88-3.65Q343.58-3.65 345.68-5.18 347.78-6.7 348.78-9.3L348.78-9.3 348.78-18.25Q347.78-20.9 345.68-22.38 343.58-23.85 340.88-23.85L340.88-23.85Q338.38-23.85 336.48-22.58 334.58-21.3 333.5-19.03 332.43-16.75 332.43-13.75L332.43-13.75Q332.43-10.8 333.5-8.53 334.58-6.25 336.48-4.95 338.38-3.65 340.88-3.65ZM386.27-15.7L381.22-15.7 381.22-19Q381.22-21.15 379.92-22.48 378.62-23.8 376.17-23.8L376.17-23.8Q373.07-23.8 370.62-21.48 368.17-19.15 366.72-14.4L366.72-14.4 366.02-19.5Q367.12-22.35 368.7-24.25 370.27-26.15 372.35-27.13 374.42-28.1 376.92-28.1L376.92-28.1Q381.07-28.1 383.67-25.73 386.27-23.35 386.27-19L386.27-19 386.27-15.7ZM367.67 0L362.62 0 362.62-27.5 367.37-27.5 367.67-21.25 367.67 0ZM406.52 0.6L406.52 0.6Q402.27 0.6 399.17-1.13 396.07-2.85 394.42-6.08 392.77-9.3 392.77-13.8L392.77-13.8Q392.77-18.3 394.45-21.5 396.12-24.7 399.25-26.4 402.37-28.1 406.72-28.1L406.72-28.1Q413.37-28.1 416.62-24.43 419.87-20.75 419.47-14.35L419.47-14.35 396.77-14.35 396.82-18.15 414.32-18.1Q414.12-20.75 412.02-22.35 409.92-23.95 406.72-23.95L406.72-23.95Q402.42-23.95 400.12-21.25 397.82-18.55 397.82-13.6L397.82-13.6Q397.82-10.65 398.85-8.38 399.87-6.1 401.82-4.85 403.77-3.6 406.52-3.6L406.52-3.6Q409.77-3.6 411.95-5.15 414.12-6.7 414.62-9.35L414.62-9.35 419.67-9.35Q419.02-4.7 415.52-2.05 412.02 0.6 406.52 0.6ZM450.72 0L445.92 0 445.72-6.25 445.72-18Q445.72-20.95 443.79-22.63 441.87-24.3 438.52-24.3L438.52-24.3Q435.27-24.3 433.22-22.83 431.17-21.35 430.97-18.75L430.97-18.75 426.02-18.75Q426.27-21.7 427.92-23.78 429.57-25.85 432.32-26.98 435.07-28.1 438.67-28.1L438.67-28.1Q442.37-28.1 445.07-26.88 447.77-25.65 449.24-23.35 450.72-21.05 450.72-17.75L450.72-17.75 450.72 0ZM435.97 0.6L435.97 0.6Q433.27 0.6 431.22-0.38 429.17-1.35 428.02-3.18 426.87-5 426.87-7.45L426.87-7.45Q426.87-11.7 430.14-14.05 433.42-16.4 439.32-16.4L439.32-16.4 446.37-16.4 446.37-12.65 439.12-12.65Q435.72-12.65 433.79-11.35 431.87-10.05 431.87-7.7L431.87-7.7Q431.87-5.75 433.24-4.65 434.62-3.55 436.97-3.55L436.97-3.55Q439.97-3.55 442.29-5.18 444.62-6.8 446.07-9.65L446.07-9.65 446.62-5.95Q445.32-2.8 442.62-1.1 439.92 0.6 435.97 0.6ZM484.97 0L480.32 0 480.32-20.1Q480.32-21.9 479.69-22.9 479.07-23.9 477.77-23.9L477.77-23.9Q475.97-23.9 474.54-21.6 473.12-19.3 472.57-14.35L472.57-14.35 472.12-18.6Q472.27-23.1 474.24-25.6 476.22-28.1 479.12-28.1L479.12-28.1Q481.82-28.1 483.39-26.13 484.97-24.15 484.97-20.5L484.97-20.5 484.97 0ZM462.12 0L457.47 0 457.47-27.5 461.92-27.5 462.12-22.15 462.12 0ZM473.52 0L468.92 0 468.92-20.1Q468.92-22 468.24-22.95 467.57-23.9 466.22-23.9L466.22-23.9Q464.32-23.9 462.97-21.5 461.62-19.1 461.07-14.35L461.07-14.35 460.97-18.75Q461.07-21.7 462.02-23.8 462.97-25.9 464.47-27 465.97-28.1 467.67-28.1L467.67-28.1Q470.47-28.1 471.99-26.08 473.52-24.05 473.52-20.55L473.52-20.55 473.52 0ZM504.46 0.6L504.46 0.6Q500.81 0.6 498.04-0.68 495.26-1.95 493.76-4.28 492.26-6.6 492.21-9.85L492.21-9.85 496.96-9.85Q496.96-6.8 499.01-5.05 501.06-3.3 504.41-3.3L504.41-3.3Q507.26-3.3 508.99-4.38 510.71-5.45 510.71-7.3L510.71-7.3Q510.71-8.75 509.74-9.63 508.76-10.5 507.16-11 505.56-11.5 503.64-11.88 501.71-12.25 499.79-12.78 497.86-13.3 496.26-14.13 494.66-14.95 493.66-16.35 492.66-17.75 492.66-20L492.66-20Q492.66-22.35 494.01-24.18 495.36-26 497.84-27.05 500.31-28.1 503.71-28.1L503.71-28.1Q508.86-28.1 511.99-25.73 515.11-23.35 515.36-19.2L515.36-19.2 510.61-19.2Q510.46-21.6 508.64-22.93 506.81-24.25 503.71-24.25L503.71-24.25Q500.81-24.25 499.29-23.1 497.76-21.95 497.76-20.2L497.76-20.2Q497.76-18.85 498.76-18.07 499.76-17.3 501.36-16.88 502.96-16.45 504.89-16.13 506.81-15.8 508.74-15.3 510.66-14.8 512.26-13.93 513.86-13.05 514.84-11.55 515.81-10.05 515.81-7.65L515.81-7.65Q515.81-3.8 512.71-1.6 509.61 0.6 504.46 0.6Z" opacity="1" transform="matrix(1,0,0,1,0,0)" fill="#ffffff" class="slogan-text-1" data-fill-palette-color="secondary" id="text-1"></path></svg></g></svg></g></svg></g></svg></g><g transform="matrix(1,0,0,1,427.93956197365037,0)"><svg viewBox="0 0 227.70560910823005 227.70560910823005" height="227.70560910823005" width="227.70560910823005"><g><svg></svg></g><g id="icon-0"><svg viewBox="0 0 227.70560910823005 227.70560910823005" height="227.70560910823005" width="227.70560910823005"><g><path d="M0 113.853c0-62.879 50.974-113.853 113.853-113.853 62.879 0 113.853 50.974 113.853 113.853 0 62.879-50.974 113.853-113.853 113.853-62.879 0-113.853-50.974-113.853-113.853zM113.853 221.513c59.459 0 107.661-48.201 107.66-107.66 0-59.459-48.201-107.661-107.66-107.661-59.459 0-107.661 48.201-107.661 107.661 0 59.459 48.201 107.661 107.661 107.66z" data-fill-palette-color="accent" fill="#dad602" stroke="transparent"></path><ellipse rx="112.71427650857387" ry="112.71427650857387" cx="113.85280455411502" cy="113.85280455411502" fill="#dad602" stroke="transparent" stroke-width="0" fill-opacity="1" data-fill-palette-color="accent"></ellipse></g><g transform="matrix(1,0,0,1,47.623035780682386,47.623035780682386)"><svg viewBox="0 0 132.45953754686528 132.45953754686528" height="132.45953754686528" width="132.45953754686528"><g><svg xmlns="http://www.w3.org/2000/svg" xmlns:xlink="http://www.w3.org/1999/xlink" version="1.1" x="0" y="0" viewBox="2 2 48 48" style="enable-background:new 0 0 52 52;" xml:space="preserve" height="132.45953754686528" width="132.45953754686528" class="icon-cg-0" data-fill-palette-color="quaternary" id="cg-0"><g fill="#fffff5" data-fill-palette-color="quaternary"><path d="M20 20.7v-18c-5.7 1.5-10.6 5-13.9 9.8l12 12.1C18.4 23.2 19 21.8 20 20.7z" fill="#fffff5" data-fill-palette-color="quaternary"></path><path d="M37.6 5C34.2 3.1 30.2 2 26 2c-1.4 0-2.7 0.1-4 0.3v16.7c0.7-0.4 1.6-0.8 2.4-0.9L37.6 5z" fill="#fffff5" data-fill-palette-color="quaternary"></path><path d="M18.2 27.5L5.1 14.3C3.1 17.8 2 21.8 2 26c0 1.4 0.1 2.7 0.3 4h16.7C18.6 29.2 18.3 28.4 18.2 27.5z" fill="#fffff5" data-fill-palette-color="quaternary"></path><path d="M39.4 6.1l-12.1 12c1.5 0.2 2.9 0.9 4 1.9h18C47.8 14.2 44.2 9.3 39.4 6.1z" fill="#fffff5" data-fill-palette-color="quaternary"></path><path d="M32 31.3v18c6-1.6 11.2-5.4 14.4-10.6L33.9 27C33.7 28.6 33 30.1 32 31.3z" fill="#fffff5" data-fill-palette-color="quaternary"></path><path d="M20.7 32h-18c1.5 5.7 5 10.6 9.8 13.8l12.1-12C23.2 33.6 21.8 33 20.7 32z" fill="#fffff5" data-fill-palette-color="quaternary"></path><path d="M49.7 22H32.9c0.4 0.7 0.7 1.4 0.9 2.2l13.6 12.7c1.7-3.3 2.6-7 2.6-10.9C50 24.6 49.9 23.3 49.7 22z" fill="#fffff5" data-fill-palette-color="quaternary"></path><path d="M14.3 46.9c3.5 2 7.5 3.1 11.7 3.1 1.4 0 2.7-0.1 4-0.3V32.9c-0.8 0.4-1.6 0.8-2.5 0.9L14.3 46.9z" fill="#fffff5" data-fill-palette-color="quaternary"></path></g></svg></g></svg></g></svg></g></svg></g></svg></g><defs></defs></svg><rect width="395.52" height="137.36412084889696" fill="none" stroke="none" visibility="hidden"></rect></g></svg></g></svg>